<svg width="246" height="246" viewBox="0 0 246 246" fill="none" xmlns="http://www.w3.org/2000/svg">
<path d="M245.499 59.6726V177.36C245.488 183.738 242.949 189.852 238.439 194.362C233.929 198.873 227.815 201.411 221.437 201.423H152.749V161.829H160.187C162.721 161.83 165.201 161.097 167.327 159.718C169.453 158.339 171.134 156.373 172.166 154.059C173.199 151.744 173.538 149.18 173.143 146.677C172.749 144.174 171.637 141.838 169.943 139.954L132.712 98.3476C131.472 96.9928 129.963 95.9117 128.281 95.1734C126.599 94.4352 124.782 94.056 122.946 94.0601C121.109 94.0642 119.294 94.4516 117.615 95.1974C115.937 95.9432 114.433 97.031 113.199 98.3914L75.924 140.041C74.253 141.938 73.1655 144.277 72.7924 146.777C72.4193 149.277 72.7765 151.831 73.8211 154.133C74.8657 156.435 76.553 158.386 78.6803 159.751C80.8075 161.116 83.2839 161.838 85.8115 161.829H93.249V201.423H24.5615C18.1809 201.419 12.0627 198.882 7.55097 194.371C3.0392 189.859 0.502825 183.741 0.499023 177.36V24.6726C0.502825 18.292 3.0392 12.1738 7.55097 7.66205C12.0627 3.15028 18.1809 0.613911 24.5615 0.610109H75.4865C79.0182 0.582124 82.5104 1.35492 85.7005 2.87042C88.8906 4.38593 91.6958 6.60473 93.9053 9.36011L111.712 31.2351C114.54 34.0372 118.361 35.6094 122.343 35.6101H221.437C227.813 35.6287 233.922 38.1698 238.431 42.6784C242.939 47.187 245.48 53.2966 245.499 59.6726ZM122.343 26.8593C126.928 27.4687 232.067 25.1674 232.199 28.6976C231.579 23.3757 229.027 18.4666 225.027 14.902C221.026 11.3374 215.857 9.36535 210.499 9.36007H105.193L118.143 25.2413C119.296 26.2786 120.792 26.8546 122.343 26.8593ZM175.479 219.142C174.904 219.142 174.335 219.255 173.804 219.475C173.273 219.694 172.791 220.017 172.385 220.423C171.978 220.829 171.656 221.312 171.436 221.843C171.217 222.374 171.104 222.943 171.104 223.517V236.642H74.854V223.517C74.854 222.357 74.3931 221.244 73.5726 220.424C72.7521 219.603 71.6393 219.142 70.479 219.142C69.3187 219.142 68.2059 219.603 67.3854 220.424C66.5649 221.244 66.104 222.357 66.104 223.517V241.017C66.1037 241.592 66.2166 242.161 66.4363 242.692C66.6561 243.223 66.9783 243.705 67.3847 244.112C67.791 244.518 68.2734 244.84 68.8044 245.06C69.3353 245.28 69.9044 245.393 70.479 245.392H175.479C176.054 245.393 176.623 245.28 177.154 245.06C177.685 244.84 178.167 244.518 178.573 244.112C178.98 243.705 179.302 243.223 179.522 242.692C179.741 242.161 179.854 241.592 179.854 241.017V223.517C179.854 222.943 179.741 222.374 179.522 221.843C179.302 221.312 178.98 220.829 178.573 220.423C178.167 220.017 177.685 219.694 177.154 219.475C176.623 219.255 176.054 219.142 175.479 219.142ZM106.374 227.891H139.624C140.783 227.888 141.894 227.426 142.714 226.606C143.534 225.786 143.996 224.676 143.999 223.516V153.079H160.187C161.028 153.078 161.852 152.834 162.559 152.376C163.265 151.918 163.824 151.266 164.168 150.498C164.506 149.721 164.615 148.864 164.484 148.027C164.352 147.19 163.984 146.408 163.424 145.773L126.237 104.21C125.813 103.774 125.306 103.427 124.747 103.191C124.187 102.954 123.585 102.832 122.977 102.832C122.369 102.832 121.768 102.954 121.208 103.191C120.648 103.427 120.141 103.774 119.718 104.21L82.5303 145.773C81.9701 146.408 81.6026 147.19 81.4708 148.027C81.3391 148.864 81.4486 149.721 81.7866 150.498C82.1353 151.272 82.7013 151.928 83.4159 152.386C84.1304 152.844 84.9627 153.085 85.8116 153.079H101.999V223.516C101.997 224.092 102.109 224.661 102.328 225.193C102.547 225.725 102.869 226.208 103.276 226.614C103.683 227.021 104.166 227.343 104.697 227.562C105.229 227.782 105.799 227.893 106.374 227.891Z" fill="url(#paint0_linear_5153_21)"/>
<defs>
<linearGradient id="paint0_linear_5153_21" x1="0.500094" y1="0.500425" x2="245.5" y2="245.5" gradientUnits="userSpaceOnUse">
<stop offset="0.05" stop-color="#672CFF"/>
<stop offset="1" stop-color="#DC12DF"/>
</linearGradient>
</defs>
</svg>
