<svg width="280" height="266" viewBox="0 0 280 266" fill="none" xmlns="http://www.w3.org/2000/svg">
<path d="M278.907 117.841C277.868 100.888 261.926 85.9964 244.257 84.93C209.519 83.0305 174.767 82.1008 140 82.1409C105.234 82.181 70.4908 83.1107 35.7716 84.93C18.102 85.9964 2.18797 100.893 1.12156 117.841C-1.16438 157.659 0.0387491 186.594 4.8075 226.352C6.96219 243.256 23.1661 258.787 40.0481 260.449C73.3091 263.501 106.627 265.027 140 265.027C173.374 265.027 206.692 263.501 239.953 260.449C256.835 258.809 273.039 243.256 275.193 226.352C279.962 186.594 281.165 157.659 278.907 117.841ZM181.793 166.6C181.082 167.311 180.238 167.875 179.309 168.26C178.38 168.645 177.384 168.843 176.379 168.843C175.373 168.843 174.377 168.645 173.449 168.26C172.52 167.875 171.675 167.311 170.965 166.6L147.657 143.287V219.571C147.657 221.601 146.85 223.549 145.414 224.984C143.978 226.42 142.031 227.227 140 227.227C137.97 227.227 136.023 226.42 134.587 224.984C133.151 223.549 132.344 221.601 132.344 219.571V143.287L109.036 166.6C107.601 168.036 105.653 168.843 103.622 168.843C101.592 168.843 99.6442 168.036 98.2083 166.6C96.7724 165.164 95.9657 163.217 95.9657 161.186C95.9657 159.156 96.7724 157.208 98.2083 155.772L134.586 119.389C135.297 118.678 136.141 118.114 137.07 117.729C137.999 117.344 138.995 117.146 140 117.146C141.006 117.146 142.002 117.344 142.931 117.729C143.86 118.114 144.704 118.678 145.415 119.389L181.793 155.772C182.504 156.483 183.068 157.327 183.453 158.256C183.837 159.185 184.035 160.181 184.035 161.186C184.035 162.192 183.837 163.187 183.453 164.116C183.068 165.045 182.504 165.889 181.793 166.6ZM1.09422 84.9081C1.88719 68.119 3.12312 52.2323 4.79109 38.2323C6.94031 21.3229 23.1442 5.80263 40.0262 4.14013C54.6752 2.79482 69.3406 1.74664 84.0223 0.995602C86.7359 0.843461 89.4467 1.33945 91.9306 2.44255C94.4145 3.54566 96.6001 5.22419 98.3067 7.33935C106.925 17.8667 115.938 28.6019 125.235 39.4409C126.419 40.8173 127.887 41.921 129.538 42.6762C131.189 43.4314 132.984 43.8202 134.8 43.8159C171.287 43.7175 207.762 44.6581 244.224 46.6378C261.899 47.7315 277.84 62.6065 278.879 79.5487C278.985 81.3716 279.082 83.242 279.169 85.1597C270.239 76.3167 258.153 70.394 245.143 69.6339H245.055C210.547 67.7581 175.186 66.8284 140 66.8284C104.815 66.8284 69.4536 67.7854 34.9403 69.6722H34.8528C21.9684 70.4214 9.98641 76.2128 1.09422 84.9081Z" fill="url(#paint0_linear_5153_17)"/>
<defs>
<linearGradient id="paint0_linear_5153_17" x1="-6.32763e-07" y1="1" x2="280" y2="265" gradientUnits="userSpaceOnUse">
<stop stop-color="#672CFF"/>
<stop offset="1" stop-color="#DC12DF"/>
</linearGradient>
</defs>
</svg>
